<svg width="120.96611" height="79.375" xmlns="http://www.w3.org/2000/svg">

 <g>
  <title>background</title>
  <rect fill="none" id="canvas_background" height="402" width="582" y="-1" x="-1"/>
 </g>
 <g>
  <title>background-inside-monitor</title>
  <rect fill="#f0db4f" id="monitor_background" height="70" width="120" y="-1" x="-1"/>
 </g>
 <g>
  <title>Layer 1</title>
  <g id="svg_1" stroke-width="1.074449" fill="#f0db4f">
   <path fill="#000" id="svg_2" d="m0,-0.506329l0,3.46468l0,69.50734l37.24751,0l0,5.8644c0,0.29829 0.23973,0.53858 0.53802,0.53858l49.41553,0c0.29829,0 0.53858,-0.24029 0.53858,-0.53858l0,-5.8644l33.22647,0l0,-72.97202l-120.96611,0zm6.93158,6.92936l107.10296,0l0,59.11108l-107.10296,0l0,-59.11108z"/>
   <path fill="#000" id="svg_3" d="m80.72034,18.578841l0,33.81392l8.32799,0l0,-11.52838l2.01329,0l7.44184,11.88262l9.13533,-1.46472l-8.343,-12.36901c3.31727,-1.71203 6.33637,-4.61729 6.33637,-8.97706c0,-8.48803 -5.48859,-11.35737 -12.404,-11.35737l-12.50782,0zm11.32849,6.49569c1.01521,0.02278 5.18418,0.28345 5.18418,4.7209c0,5.07138 -5.41238,4.72091 -5.41238,4.72091l-2.7723,0l0,-9.44125l3.0005,-0.00056z"/>
   <path fill="#000" id="svg_4" d="m55.74856,18.610481l-12.37901,34.13652l8.43516,0l2.17041,-6.95212l11.63222,0l2.31812,7.27416l8.7422,-1.40142l-11.8693,-33.05714l-9.0498,0zm3.98327,8.74721l3.77062,11.83265l-7.46517,0l3.69455,-11.83265z"/>
   <path fill="#000" id="svg_5" d="m23.62311,18.61048l-9.27968,1.48748l11.83822,32.97108l9.0498,0l12.379,-34.13652l-9.00372,0l-7.36411,23.58757l-7.61951,-23.90961z"/>
  </g>
  <g id="svg_13">
   <path stroke="null" id="svg_12" d="m99.988711,61.944909l1.384057,-0.973583c0.267061,0.550268 0.50996,1.015873 1.092621,1.015873c0.558498,0 0.910694,-0.253907 0.910694,-1.241614l0,-6.717033l1.699656,0l0,6.744952c0,2.046117 -1.031931,2.977492 -2.537508,2.977492c-1.359682,0 -2.148926,-0.818463 -2.549589,-1.806253m6.010296,-0.211534l1.383915,-0.931293c0.364348,0.69151 0.837852,1.199488 1.675493,1.199488c0.704322,0 1.153381,-0.409273 1.153381,-0.973747c0,-0.677304 -0.461352,-0.91725 -1.238374,-1.312235l-0.424826,-0.211863c-1.226293,-0.606601 -2.0397,-1.368649 -2.0397,-2.977328c0,-1.481725 0.971242,-2.610674 2.4889,-2.610674c1.080539,0 1.857561,0.437521 2.415988,1.580512l-1.323438,0.987871c-0.291436,-0.606765 -0.606964,-0.84663 -1.092621,-0.84663c-0.497808,0 -0.813478,0.3669 -0.813478,0.84663c0,0.592641 0.315669,0.83267 1.044083,1.19957l0.424896,0.211616c1.444817,0.719758 2.258224,1.453477 2.258224,3.104363c0,1.778168 -1.201918,2.751751 -2.816651,2.751751c-1.578277,0 -2.598127,-0.874878 -3.095864,-2.017951"/>
  </g>
 </g>
</svg>